<?xml version="1.0" standalone="no"?>
<!DOCTYPE svg PUBLIC "-//W3C//DTD SVG 20010904//EN"
 "http://www.w3.org/TR/2001/REC-SVG-20010904/DTD/svg10.dtd">
<svg version="1.0" xmlns="http://www.w3.org/2000/svg"
 width="70.000000pt" height="70.000000pt" viewBox="0 0 70.000000 70.000000"
 preserveAspectRatio="xMidYMid meet">
<metadata>
Created by potrace 1.14, written by Peter Selinger 2001-2017
</metadata>
<g transform="translate(0.000000,70.000000) scale(0.100000,-0.100000)"
fill="#000000" stroke="none">
<path d="M220 357 c0 -47 1 -48 28 -45 21 2 28 9 30 31 3 20 -1 27 -14 27 -9
0 -23 8 -30 18 -12 15 -13 11 -14 -31z m45 -17 c0 -7 -6 -15 -12 -17 -8 -3
-13 4 -13 17 0 13 5 20 13 18 6 -3 12 -11 12 -18z"/>
<path d="M307 394 c-14 -15 -6 -41 16 -52 l22 -11 -22 0 c-35 -1 -27 -21 7
-21 37 0 41 29 8 54 l-23 17 23 -5 c15 -3 22 0 19 7 -4 14 -39 21 -50 11z"/>
<path d="M378 384 c-6 -31 3 -74 17 -74 15 0 14 65 -2 81 -8 8 -12 6 -15 -7z"/>
<path d="M550 386 c0 -8 -7 -13 -16 -12 -21 1 -39 -27 -31 -48 4 -10 18 -16
37 -16 29 0 30 2 30 45 0 25 -4 45 -10 45 -5 0 -10 -6 -10 -14z m0 -47 c0 -5
-7 -9 -15 -9 -15 0 -20 12 -9 23 8 8 24 -1 24 -14z"/>
<path d="M582 355 c-1 -25 2 -45 8 -45 5 0 10 20 10 45 0 25 -4 45 -8 45 -5 0
-10 -20 -10 -45z"/>
<path d="M20 386 c0 -2 7 -20 15 -40 16 -38 35 -48 35 -18 1 15 2 15 15 -2 8
-11 17 -17 20 -15 13 13 34 79 25 79 -5 0 -12 -11 -16 -25 -3 -14 -11 -25 -16
-25 -6 0 -8 10 -4 23 4 18 1 23 -14 23 -14 0 -18 -5 -15 -17 3 -10 1 -20 -4
-24 -6 -3 -13 6 -17 20 -3 14 -10 25 -15 25 -5 0 -9 -2 -9 -4z"/>
<path d="M426 368 c-15 -32 -3 -53 32 -56 32 -3 33 -2 30 30 -3 37 -21 45 -26
11 -5 -32 -20 -29 -24 5 -3 22 -6 24 -12 10z"/>
<path d="M626 364 c-10 -9 -15 -23 -12 -31 3 -8 6 -17 6 -19 0 -2 11 -4 25 -4
29 0 43 25 28 48 -14 23 -29 25 -47 6z m34 -18 c0 -8 -4 -17 -9 -20 -10 -7
-23 19 -14 28 11 11 23 6 23 -8z"/>
<path d="M145 360 c-11 -18 6 -50 25 -50 10 0 21 4 24 9 4 5 -3 7 -14 4 -11
-3 -20 0 -20 6 0 6 11 11 25 11 18 0 23 4 19 15 -7 17 -49 20 -59 5z m42 -6
c-3 -3 -12 -4 -19 -1 -8 3 -5 6 6 6 11 1 17 -2 13 -5z"/>
</g>
</svg>
